<?xml version="1.0" encoding="UTF-8" standalone="no"?>
<!-- Created with Inkscape (http://www.inkscape.org/) -->

<svg
   width="52.763191mm"
   height="55.072147mm"
   viewBox="0 0 52.763191 55.072147"
   version="1.1"
   id="svg1"
   xml:space="preserve"
   inkscape:version="1.4 (86a8ad7, 2024-10-11)"
   sodipodi:docname="logotp2.svg"
   xmlns:inkscape="http://www.inkscape.org/namespaces/inkscape"
   xmlns:sodipodi="http://sodipodi.sourceforge.net/DTD/sodipodi-0.dtd"
   xmlns="http://www.w3.org/2000/svg"
   xmlns:svg="http://www.w3.org/2000/svg"><sodipodi:namedview
     id="namedview1"
     pagecolor="#505050"
     bordercolor="#eeeeee"
     borderopacity="1"
     inkscape:showpageshadow="0"
     inkscape:pageopacity="0"
     inkscape:pagecheckerboard="0"
     inkscape:deskcolor="#505050"
     inkscape:document-units="mm"
     inkscape:zoom="1.4142136"
     inkscape:cx="215.66757"
     inkscape:cy="219.55666"
     inkscape:window-width="1920"
     inkscape:window-height="1009"
     inkscape:window-x="-8"
     inkscape:window-y="-8"
     inkscape:window-maximized="1"
     inkscape:current-layer="g37"><inkscape:page
       x="0"
       y="0"
       width="52.763191"
       height="55.072147"
       id="page2"
       margin="0"
       bleed="0" /></sodipodi:namedview><defs
     id="defs1" /><g
     id="g37"
     inkscape:label="crate"
     transform="matrix(0.57869,0,0,0.643876,35.373134,-44.618186)"
     inkscape:export-filename="C:\Users\Franku\Desktop\clickratelogo.svg"
     inkscape:export-xdpi="96"
     inkscape:export-ydpi="96"><path
       d="m 23.55689,91.549958 c -0.426324,0.1343 -8.110086,2.47472 -17.0747824,5.19997 -8.96469,2.72526 -16.9429466,5.173912 -17.7303836,5.442282 l -1.431892,0.48827 v 22.66885 c 0,12.46802 0.148364,22.66235 0.330084,22.65421 0.181719,-0.009 8.4585326,-2.49095 18.3923796,-5.51816 l 18.0613824,-5.50447 0.114307,-22.83708 c 0.108196,-21.609642 0.07237,-22.824912 -0.661084,-22.593872 z"
       style="fill:#fbac18;stroke-width:1.4144"
       id="path11"
       sodipodi:nodetypes="ssccssccss"
       inkscape:export-filename="clickratelogo.svg"
       inkscape:export-xdpi="96"
       inkscape:export-ydpi="96" /><g
       id="g126"
       transform="matrix(2.7293918,0,0,2.6881541,-532.63182,63.364063)"><path
         style="fill:#fdfdfd"
         d="m 190.537,23.0065 -0.061,-8.5244 6.868,-2.0849 6.869,-2.085 0.061,8.5243 0.061,8.5243 -6.868,2.085 -6.868,2.0851 z"
         id="path135" /><path
         style="fill:#fcd8a0"
         d="m 190.537,23.0065 -0.061,-8.5244 3.251,-0.9844 3.251,-0.9845 -0.168,0.2085 c -0.243,0.2997 -0.346,0.6351 -0.343,1.1106 0.003,0.3405 0.028,0.4298 0.136,0.4908 0.111,0.0623 0.12,0.0977 0.055,0.2153 -0.042,0.0775 -0.159,0.1656 -0.259,0.196 -0.498,0.1511 -0.93,0.8297 -1.348,2.115 -0.28,0.8625 -0.294,0.8895 -0.487,0.9481 -0.195,0.0591 -0.202,0.0738 -0.361,0.7359 -0.089,0.3716 -0.21,0.8494 -0.269,1.0619 l -0.108,0.3863 0.201,0.1093 0.201,0.1093 -0.09,0.4414 c -0.055,0.2718 -0.141,0.4996 -0.224,0.5926 -0.084,0.0943 -0.198,0.3995 -0.304,0.8112 -0.145,0.5683 -0.191,0.6725 -0.331,0.75 -0.159,0.088 -0.163,0.1064 -0.198,0.8329 -0.019,0.4086 -0.06,0.9727 -0.091,1.2535 -0.053,0.4842 -0.074,0.5377 -0.41,1.0356 -0.339,0.5039 -0.374,0.5936 -0.871,2.2449 -0.326,1.0845 -0.524,1.8458 -0.533,2.0604 -0.022,0.4579 -0.296,1.2226 -0.456,1.2714 -0.12,0.0364 -0.122,-0.0379 -0.183,-8.4876 z m 1.606,7.5951 c 0.035,-0.4667 0.045,-0.4901 1.045,-2.4244 0.955,-1.8479 1.029,-2.0166 1.377,-3.128 0.671,-2.145 0.669,-2.1397 0.787,-2.1755 0.073,-0.0221 0.207,0.1284 0.386,0.4334 0.391,0.6652 0.724,1.1081 0.9,1.1971 0.083,0.0423 0.152,0.1035 0.152,0.1358 0,0.0324 -0.122,0.3702 -0.271,0.7507 -0.214,0.5462 -0.3,0.8816 -0.409,1.5942 -0.076,0.4964 -0.228,1.3818 -0.337,1.9675 l -0.199,1.065 -1.733,0.5277 -1.734,0.5277 z m 5.72,-1.4158 c -0.001,-0.1049 -0.093,-0.1462 -0.372,-0.1662 -0.255,-0.0184 -0.408,-0.0801 -0.491,-0.1975 -0.156,-0.222 -0.154,-0.2384 0.067,-0.5917 0.186,-0.2974 0.264,-0.5365 0.959,-2.9288 0.3,-1.0323 0.353,-1.2809 0.319,-1.5095 -0.037,-0.2442 -0.988,-2.1773 -1.271,-2.5834 -0.061,-0.0877 -0.133,-0.365 -0.159,-0.6163 -0.046,-0.4454 -0.044,-0.458 0.096,-0.5004 0.122,-0.037 0.193,-0.1853 0.469,-0.9728 0.267,-0.7646 0.311,-0.9452 0.248,-1.0195 -0.061,-0.073 -0.056,-0.1345 0.026,-0.3193 0.057,-0.1259 0.12,-0.2241 0.141,-0.2181 0.02,0.006 0.179,0.0602 0.352,0.1206 0.262,0.091 0.349,0.0877 0.511,-0.0193 0.272,-0.1797 0.352,-0.3039 0.495,-0.7697 0.136,-0.4437 0.231,-0.5448 0.233,-0.2488 0.001,0.2167 0.047,0.2124 0.484,-0.0462 0.339,-0.2001 0.341,-0.2094 0.234,-0.7341 -0.055,-0.271 -0.057,-0.4382 -0.007,-0.6681 0.037,-0.1687 0.083,-0.3885 0.103,-0.4884 0.035,-0.1798 0.046,-0.185 1.13,-0.514 l 1.095,-0.3323 -0.002,-0.2652 -0.002,-0.2652 0.427,-0.1298 c 0.34,-0.1029 0.428,-0.1531 0.427,-0.2433 -0.001,-0.0902 -0.089,-0.0869 -0.428,0.016 -0.415,0.1261 -0.428,0.1244 -0.429,-0.0597 -0.001,-0.2083 -0.09,-0.228 -0.145,-0.032 -0.05,0.1827 -3.884,1.3516 -3.885,1.1847 0,-0.0596 0.061,-0.138 0.137,-0.1743 0.178,-0.0857 0.29,-0.6816 0.155,-0.821 -0.047,-0.0479 -0.151,-0.201 -0.231,-0.34 -0.08,-0.1391 -0.259,-0.3093 -0.397,-0.3783 l -0.252,-0.1254 3.156,-0.9582 3.157,-0.9581 0.061,8.5243 0.061,8.5243 -3.236,0.9823 c -3.102,0.9417 -3.235,0.9765 -3.236,0.8427 z"
         id="path134" /><path
         style="fill:#b1b3ca"
         d="m 190.537,23.0065 -0.061,-8.5244 3.235,-0.9819 3.235,-0.982 -0.224,0.3251 c -0.212,0.3081 -0.225,0.3546 -0.245,0.8849 -0.018,0.4678 -0.004,0.5704 0.086,0.6242 0.171,0.1027 0.07,0.3109 -0.189,0.3896 -0.301,0.0915 -0.68,0.4946 -0.911,0.9715 -0.104,0.213 -0.31,0.7551 -0.459,1.2045 -0.255,0.7705 -0.282,0.822 -0.471,0.9025 -0.2,0.0847 -0.203,0.0932 -0.466,1.1439 -0.215,0.8611 -0.248,1.065 -0.179,1.0933 0.318,0.1298 0.326,0.15 0.22,0.5776 -0.054,0.2195 -0.163,0.5057 -0.243,0.6361 -0.079,0.1304 -0.211,0.4965 -0.292,0.8135 -0.127,0.497 -0.169,0.5864 -0.307,0.649 -0.088,0.0399 -0.16,0.0819 -0.16,0.0932 0.001,0.1932 -0.174,2.4646 -0.196,2.5455 -0.018,0.0619 -0.128,0.2243 -0.246,0.3607 -0.314,0.3634 -0.39,0.553 -0.961,2.3915 -0.368,1.1845 -0.524,1.7797 -0.535,2.0419 -0.018,0.4534 -0.307,1.2841 -0.463,1.3315 -0.101,0.0309 -0.11,-0.4237 -0.168,-8.4917 z m 1.609,7.8173 c 0.02,-0.1366 0.036,-0.3403 0.035,-0.4527 -0.001,-0.1484 0.278,-0.7443 1.021,-2.1799 0.937,-1.8112 1.048,-2.0592 1.332,-2.9809 0.572,-1.8561 0.73,-2.3099 0.815,-2.3355 0.046,-0.014 0.184,0.1405 0.307,0.3432 0.503,0.8271 0.804,1.2439 0.95,1.3125 0.084,0.0398 0.163,0.0775 0.175,0.0838 0.011,0.0063 -0.112,0.3533 -0.276,0.771 -0.23,0.5901 -0.319,0.9187 -0.396,1.4733 -0.055,0.3925 -0.192,1.1787 -0.303,1.747 -0.112,0.5682 -0.203,1.117 -0.203,1.2194 l 0.002,0.1861 -1.748,0.5305 -1.747,0.5305 z m 5.717,-1.638 c -0.001,-0.1049 -0.093,-0.1462 -0.372,-0.1662 -0.255,-0.0184 -0.408,-0.0801 -0.491,-0.1975 -0.156,-0.222 -0.154,-0.2384 0.067,-0.5917 0.186,-0.2974 0.264,-0.5365 0.959,-2.9288 0.3,-1.0323 0.353,-1.2809 0.319,-1.5095 -0.037,-0.2442 -0.988,-2.1773 -1.271,-2.5834 -0.061,-0.0877 -0.133,-0.365 -0.159,-0.6163 -0.046,-0.4454 -0.044,-0.458 0.096,-0.5004 0.122,-0.037 0.193,-0.1853 0.469,-0.9728 0.267,-0.7646 0.311,-0.9452 0.248,-1.0195 -0.061,-0.073 -0.056,-0.1345 0.026,-0.3193 0.057,-0.1259 0.12,-0.2241 0.141,-0.2181 0.02,0.006 0.179,0.0602 0.352,0.1206 0.262,0.091 0.349,0.0877 0.511,-0.0193 0.272,-0.1797 0.352,-0.3039 0.495,-0.7697 0.136,-0.4437 0.231,-0.5448 0.233,-0.2488 0.001,0.2167 0.047,0.2124 0.484,-0.0462 0.339,-0.2001 0.341,-0.2094 0.234,-0.7341 -0.055,-0.271 -0.057,-0.4382 -0.007,-0.6681 0.037,-0.1687 0.083,-0.3885 0.103,-0.4884 0.035,-0.1798 0.046,-0.185 1.13,-0.514 l 1.095,-0.3323 -0.002,-0.2652 -0.002,-0.2652 0.427,-0.1298 c 0.34,-0.1029 0.428,-0.1531 0.427,-0.2433 -0.001,-0.0902 -0.089,-0.0869 -0.428,0.016 -0.415,0.1261 -0.428,0.1244 -0.429,-0.0597 -0.001,-0.2083 -0.09,-0.228 -0.145,-0.032 -0.05,0.1827 -3.884,1.3516 -3.885,1.1847 0,-0.0596 0.061,-0.138 0.137,-0.1743 0.178,-0.0857 0.29,-0.6816 0.155,-0.821 -0.047,-0.0479 -0.151,-0.201 -0.231,-0.34 -0.08,-0.1391 -0.259,-0.3093 -0.397,-0.3783 l -0.252,-0.1254 3.156,-0.9582 3.157,-0.9581 0.061,8.5243 0.061,8.5243 -3.236,0.9823 c -3.102,0.9417 -3.235,0.9765 -3.236,0.8427 z"
         id="path133" /><path
         style="fill:#fbc46e"
         d="m 190.537,23.0065 -0.061,-8.5244 3.235,-0.9819 3.235,-0.982 -0.224,0.3251 c -0.212,0.3081 -0.225,0.3546 -0.245,0.8849 -0.018,0.4678 -0.004,0.5704 0.086,0.6242 0.171,0.1027 0.07,0.3109 -0.189,0.3896 -0.301,0.0915 -0.68,0.4946 -0.911,0.9715 -0.104,0.213 -0.31,0.7551 -0.459,1.2045 -0.255,0.7705 -0.282,0.822 -0.471,0.9025 -0.2,0.0847 -0.203,0.0932 -0.466,1.1439 -0.215,0.8611 -0.248,1.065 -0.179,1.0933 0.318,0.1298 0.326,0.15 0.22,0.5776 -0.054,0.2195 -0.163,0.5057 -0.243,0.6361 -0.079,0.1304 -0.211,0.4965 -0.292,0.8135 -0.127,0.497 -0.169,0.5864 -0.307,0.649 -0.088,0.0399 -0.16,0.0819 -0.16,0.0932 0.001,0.1932 -0.174,2.4646 -0.196,2.5455 -0.018,0.0619 -0.128,0.2243 -0.246,0.3607 -0.314,0.3634 -0.39,0.553 -0.961,2.3915 -0.368,1.1845 -0.524,1.7797 -0.535,2.0419 -0.018,0.4534 -0.307,1.2841 -0.463,1.3315 -0.101,0.0309 -0.11,-0.4237 -0.168,-8.4917 z m 1.609,7.8173 c 0.02,-0.1366 0.036,-0.3403 0.035,-0.4527 -0.001,-0.1484 0.278,-0.7443 1.021,-2.1799 0.937,-1.8112 1.048,-2.0592 1.332,-2.9809 0.572,-1.8561 0.73,-2.3099 0.815,-2.3355 0.046,-0.014 0.184,0.1405 0.307,0.3432 0.503,0.8271 0.804,1.2439 0.95,1.3125 0.084,0.0398 0.163,0.0775 0.175,0.0838 0.011,0.0063 -0.112,0.3533 -0.276,0.771 -0.23,0.5901 -0.319,0.9187 -0.396,1.4733 -0.055,0.3925 -0.192,1.1787 -0.303,1.747 -0.112,0.5682 -0.203,1.117 -0.203,1.2194 l 0.002,0.1861 -1.748,0.5305 -1.747,0.5305 z m 5.759,-1.6585 c 0.025,-0.1322 -0.026,-0.1595 -0.328,-0.175 -0.359,-0.0185 -0.538,-0.1034 -0.639,-0.303 -0.04,-0.0783 0.003,-0.2079 0.158,-0.4834 0.149,-0.2637 0.375,-0.9314 0.753,-2.2289 0.481,-1.6462 0.537,-1.8879 0.502,-2.1703 -0.034,-0.2842 -0.939,-2.1597 -1.29,-2.6763 -0.159,-0.2332 -0.169,-0.9996 -0.013,-1.0491 0.073,-0.0234 0.213,-0.3246 0.447,-0.9605 0.316,-0.8595 0.333,-0.9333 0.239,-1.0206 -0.093,-0.0873 -0.091,-0.1091 0.033,-0.3028 l 0.134,-0.2087 0.33,0.1208 c 0.311,0.1137 0.346,0.1105 0.587,-0.0528 0.232,-0.1571 0.273,-0.2238 0.426,-0.6946 0.167,-0.5162 0.174,-0.5209 0.27,-0.1773 0.023,0.0862 0.079,0.069 0.409,-0.1269 0.21,-0.1247 0.388,-0.2377 0.397,-0.251 0.008,-0.0134 -0.027,-0.2305 -0.079,-0.4825 -0.066,-0.3187 -0.078,-0.5222 -0.038,-0.6686 0.031,-0.1158 0.072,-0.3093 0.092,-0.43 l 0.035,-0.2195 1.094,-0.3322 1.094,-0.3321 0.017,-0.2899 0.017,-0.2899 0.412,-0.1475 c 0.311,-0.1115 0.412,-0.1744 0.411,-0.2577 -0.001,-0.0859 -0.095,-0.0816 -0.428,0.0196 l -0.428,0.1297 -0.001,-0.2273 c -0.002,-0.2637 -0.063,-0.2725 -0.17,-0.0245 -0.072,0.1686 -0.141,0.1948 -1.972,0.7506 -1.491,0.4525 -1.892,0.554 -1.872,0.4734 0.013,-0.0563 0.075,-0.118 0.138,-0.137 0.166,-0.0509 0.297,-0.7691 0.166,-0.9108 -0.05,-0.0544 -0.173,-0.2184 -0.272,-0.3644 -0.099,-0.146 -0.284,-0.3019 -0.411,-0.3464 l -0.231,-0.0808 3.159,-0.9625 3.159,-0.9624 0.062,8.5243 0.061,8.5243 -3.23,0.9806 c -3.168,0.9617 -3.229,0.9775 -3.2,0.8239 z"
         id="path132" /><path
         style="fill:#fab94e"
         d="m 190.537,23.0065 -0.061,-8.5244 3.214,-0.9757 3.214,-0.9756 -0.163,0.2393 c -0.09,0.1316 -0.2,0.3615 -0.244,0.5108 -0.098,0.3259 -0.052,0.983 0.074,1.069 0.157,0.1076 0.033,0.3224 -0.234,0.4033 -0.502,0.1525 -0.858,0.7195 -1.316,2.0985 -0.279,0.8415 -0.304,0.8902 -0.495,0.9711 -0.2,0.0848 -0.203,0.0909 -0.463,1.1443 -0.281,1.135 -0.283,1.07 0.03,1.2134 0.092,0.0421 0.092,0.0778 0.001,0.4554 -0.055,0.2254 -0.163,0.5159 -0.242,0.6455 -0.078,0.1295 -0.213,0.5038 -0.3,0.8316 -0.135,0.5068 -0.18,0.6026 -0.302,0.6394 -0.171,0.0521 -0.176,0.0766 -0.252,1.3793 -0.032,0.5382 -0.082,1.0659 -0.111,1.1728 -0.03,0.107 -0.167,0.3416 -0.304,0.5215 -0.287,0.3753 -0.373,0.6005 -0.967,2.5483 -0.271,0.8885 -0.448,1.5839 -0.472,1.8519 -0.041,0.4659 -0.317,1.2355 -0.46,1.2786 -0.073,0.0222 -0.094,-1.2278 -0.147,-8.4983 z m 1.645,7.6082 c 0.017,-0.246 0.056,-0.5061 0.087,-0.5782 0.031,-0.072 0.477,-0.9422 0.992,-1.9336 0.934,-1.8016 0.935,-1.8036 1.44,-3.3988 0.502,-1.5885 0.583,-1.8096 0.667,-1.8352 0.024,-0.0074 0.235,0.2962 0.467,0.6746 0.233,0.3784 0.539,0.7894 0.681,0.9134 l 0.258,0.2254 -0.285,0.7166 c -0.216,0.5449 -0.308,0.8821 -0.383,1.4073 -0.054,0.3799 -0.181,1.1087 -0.282,1.6196 -0.101,0.5108 -0.198,1.0701 -0.217,1.2428 l -0.033,0.3139 -1.712,0.5397 -1.711,0.5398 z m 5.723,-1.4494 c 0.025,-0.1322 -0.026,-0.1595 -0.328,-0.175 -0.359,-0.0185 -0.538,-0.1034 -0.639,-0.303 -0.04,-0.0783 0.003,-0.2079 0.158,-0.4834 0.149,-0.2637 0.375,-0.9314 0.753,-2.2289 0.481,-1.6462 0.537,-1.8879 0.502,-2.1703 -0.034,-0.2842 -0.939,-2.1597 -1.29,-2.6763 -0.159,-0.2332 -0.169,-0.9996 -0.013,-1.0491 0.073,-0.0234 0.213,-0.3246 0.447,-0.9605 0.316,-0.8595 0.333,-0.9333 0.239,-1.0206 -0.093,-0.0873 -0.091,-0.1091 0.033,-0.3028 l 0.134,-0.2087 0.33,0.1208 c 0.311,0.1137 0.346,0.1105 0.587,-0.0528 0.232,-0.1571 0.273,-0.2238 0.426,-0.6946 0.167,-0.5162 0.174,-0.5209 0.27,-0.1773 0.023,0.0862 0.079,0.069 0.409,-0.1269 0.21,-0.1247 0.388,-0.2377 0.397,-0.251 0.008,-0.0134 -0.027,-0.2305 -0.079,-0.4825 -0.066,-0.3187 -0.078,-0.5222 -0.038,-0.6686 0.031,-0.1158 0.072,-0.3093 0.092,-0.43 l 0.035,-0.2195 1.094,-0.3322 1.094,-0.3321 0.017,-0.2899 0.017,-0.2899 0.412,-0.1475 c 0.311,-0.1115 0.412,-0.1744 0.411,-0.2577 -0.001,-0.0859 -0.095,-0.0816 -0.428,0.0196 l -0.428,0.1297 -0.001,-0.2273 c -0.002,-0.2637 -0.063,-0.2725 -0.17,-0.0245 -0.072,0.1686 -0.141,0.1948 -1.972,0.7506 -1.491,0.4525 -1.892,0.554 -1.872,0.4734 0.013,-0.0563 0.075,-0.118 0.138,-0.137 0.166,-0.0509 0.297,-0.7691 0.166,-0.9108 -0.05,-0.0544 -0.173,-0.2184 -0.272,-0.3644 -0.099,-0.146 -0.284,-0.3019 -0.411,-0.3464 l -0.231,-0.0808 3.159,-0.9625 3.159,-0.9624 0.062,8.5243 0.061,8.5243 -3.23,0.9806 c -3.168,0.9617 -3.229,0.9775 -3.2,0.8239 z"
         id="path131" /><path
         style="fill:#8e93b5"
         d="m 190.537,23.0065 -0.061,-8.5244 3.219,-0.9771 c 2.939,-0.8921 3.207,-0.9632 3.083,-0.817 -0.075,0.0881 -0.192,0.3158 -0.26,0.506 -0.102,0.2851 -0.116,0.4209 -0.08,0.7731 0.027,0.2598 0.078,0.433 0.13,0.4419 0.181,0.0312 0.018,0.2686 -0.238,0.3467 -0.503,0.1533 -0.924,0.8209 -1.343,2.1303 -0.252,0.7866 -0.273,0.8291 -0.467,0.9094 -0.196,0.0814 -0.209,0.1088 -0.388,0.8013 -0.346,1.3409 -0.356,1.4145 -0.2,1.5229 0.074,0.052 0.163,0.0977 0.197,0.1014 0.084,0.0092 -0.105,0.6899 -0.273,0.9806 -0.072,0.1265 -0.207,0.5005 -0.298,0.8311 -0.118,0.4233 -0.198,0.6105 -0.272,0.633 -0.174,0.0528 -0.224,0.227 -0.261,0.9144 -0.019,0.361 -0.063,0.9177 -0.096,1.2373 -0.059,0.5605 -0.072,0.5969 -0.373,1.0343 -0.24,0.3486 -0.363,0.6157 -0.531,1.1555 -0.121,0.3862 -0.361,1.1551 -0.534,1.7087 -0.209,0.6711 -0.323,1.1486 -0.34,1.4322 -0.028,0.4665 -0.319,1.3119 -0.467,1.3567 -0.073,0.0222 -0.094,-1.2291 -0.147,-8.4983 z m 1.647,7.6825 c -0.003,-0.3972 0.076,-0.6573 0.355,-1.1702 0.102,-0.188 0.524,-0.9984 0.938,-1.8008 0.662,-1.2813 0.795,-1.5899 1.089,-2.5327 0.658,-2.1088 0.694,-2.2077 0.813,-2.2439 0.063,-0.0189 0.114,-0.004 0.114,0.0331 0.001,0.1361 0.862,1.3987 1.046,1.534 0.104,0.0769 0.19,0.1642 0.19,0.194 0,0.0299 -0.121,0.3579 -0.27,0.729 -0.221,0.5502 -0.293,0.8328 -0.391,1.5311 -0.067,0.471 -0.196,1.2037 -0.287,1.6281 -0.091,0.4245 -0.184,0.9227 -0.207,1.107 l -0.041,0.3352 -1.674,0.508 -1.673,0.5081 z m 5.721,-1.5237 c 0.025,-0.1322 -0.026,-0.1595 -0.328,-0.175 -0.359,-0.0185 -0.538,-0.1034 -0.639,-0.303 -0.04,-0.0783 0.003,-0.2079 0.158,-0.4834 0.149,-0.2637 0.375,-0.9314 0.753,-2.2289 0.481,-1.6462 0.537,-1.8879 0.502,-2.1703 -0.034,-0.2842 -0.939,-2.1597 -1.29,-2.6763 -0.159,-0.2332 -0.169,-0.9996 -0.013,-1.0491 0.073,-0.0234 0.213,-0.3246 0.447,-0.9605 0.316,-0.8595 0.333,-0.9333 0.239,-1.0206 -0.093,-0.0873 -0.091,-0.1091 0.033,-0.3028 l 0.134,-0.2087 0.33,0.1208 c 0.311,0.1137 0.346,0.1105 0.587,-0.0528 0.232,-0.1571 0.273,-0.2238 0.426,-0.6946 0.167,-0.5162 0.174,-0.5209 0.27,-0.1773 0.023,0.0862 0.079,0.069 0.409,-0.1269 0.21,-0.1247 0.388,-0.2377 0.397,-0.251 0.008,-0.0134 -0.027,-0.2305 -0.079,-0.4825 -0.066,-0.3187 -0.078,-0.5222 -0.038,-0.6686 0.031,-0.1158 0.072,-0.3093 0.092,-0.43 l 0.035,-0.2195 1.094,-0.3322 1.094,-0.3321 0.017,-0.2899 0.017,-0.2899 0.412,-0.1475 c 0.311,-0.1115 0.412,-0.1744 0.411,-0.2577 -0.001,-0.0859 -0.095,-0.0816 -0.428,0.0196 l -0.428,0.1297 -0.001,-0.2273 c -0.002,-0.2637 -0.063,-0.2725 -0.17,-0.0245 -0.072,0.1686 -0.141,0.1948 -1.972,0.7506 -1.491,0.4525 -1.892,0.554 -1.872,0.4734 0.013,-0.0563 0.075,-0.118 0.138,-0.137 0.166,-0.0509 0.297,-0.7691 0.166,-0.9108 -0.05,-0.0544 -0.173,-0.2184 -0.272,-0.3644 -0.099,-0.146 -0.284,-0.3019 -0.411,-0.3464 l -0.231,-0.0808 3.159,-0.9625 3.159,-0.9624 0.062,8.5243 0.061,8.5243 -3.23,0.9806 c -3.168,0.9617 -3.229,0.9775 -3.2,0.8239 z"
         id="path130" /><path
         style="fill:#f9aa16"
         d="m 190.537,23.0065 -0.061,-8.5244 3.219,-0.9771 c 2.939,-0.8921 3.207,-0.9632 3.083,-0.817 -0.075,0.0881 -0.192,0.3158 -0.26,0.506 -0.102,0.2851 -0.116,0.4209 -0.08,0.7731 0.027,0.2598 0.078,0.433 0.13,0.4419 0.181,0.0312 0.018,0.2686 -0.238,0.3467 -0.503,0.1533 -0.924,0.8209 -1.343,2.1303 -0.252,0.7866 -0.273,0.8291 -0.467,0.9094 -0.196,0.0814 -0.209,0.1088 -0.388,0.8013 -0.346,1.3409 -0.356,1.4145 -0.2,1.5229 0.074,0.052 0.163,0.0977 0.197,0.1014 0.084,0.0092 -0.105,0.6899 -0.273,0.9806 -0.072,0.1265 -0.207,0.5005 -0.298,0.8311 -0.118,0.4233 -0.198,0.6105 -0.272,0.633 -0.174,0.0528 -0.224,0.227 -0.261,0.9144 -0.019,0.361 -0.063,0.9177 -0.096,1.2373 -0.059,0.5605 -0.072,0.5969 -0.373,1.0343 -0.24,0.3486 -0.363,0.6157 -0.531,1.1555 -0.121,0.3862 -0.361,1.1551 -0.534,1.7087 -0.209,0.6711 -0.323,1.1486 -0.34,1.4322 -0.028,0.4665 -0.188,1.3079 -0.529,1.378 -0.039,0.008 -0.032,-1.2504 -0.085,-8.5196 z m 1.647,7.6825 c -0.003,-0.3972 0.076,-0.6573 0.355,-1.1702 0.102,-0.188 0.524,-0.9984 0.938,-1.8008 0.662,-1.2813 0.795,-1.5899 1.089,-2.5327 0.658,-2.1088 0.694,-2.2077 0.813,-2.2439 0.063,-0.0189 0.114,-0.004 0.114,0.0331 0.001,0.1361 0.862,1.3987 1.046,1.534 0.104,0.0769 0.19,0.1642 0.19,0.194 0,0.0299 -0.121,0.3579 -0.27,0.729 -0.221,0.5502 -0.293,0.8328 -0.391,1.5311 -0.067,0.471 -0.196,1.2037 -0.287,1.6281 -0.091,0.4245 -0.184,0.9227 -0.207,1.107 l -0.041,0.3352 -1.674,0.508 -1.673,0.5081 z m 5.704,-1.5333 c 0.003,-0.135 -0.065,-0.1702 -0.393,-0.2033 -0.294,-0.0297 -0.421,-0.0862 -0.49,-0.2177 -0.089,-0.1696 -0.085,-0.1916 0.097,-0.485 0.249,-0.4036 1.277,-3.9004 1.273,-4.3341 -0.001,-0.1658 -0.073,-0.4441 -0.165,-0.64 -0.207,-0.4401 -1.068,-2.0737 -1.179,-2.2383 -0.047,-0.0683 -0.086,-0.2903 -0.087,-0.4933 -0.002,-0.3088 0.018,-0.3819 0.123,-0.448 0.085,-0.0538 0.227,-0.3664 0.445,-0.9847 0.286,-0.8083 0.311,-0.9184 0.235,-1.024 -0.075,-0.1022 -0.073,-0.141 0.013,-0.2867 0.129,-0.2174 0.158,-0.223 0.449,-0.0844 0.451,0.2153 0.836,-0.0616 1.059,-0.7619 0.138,-0.4301 0.141,-0.4342 0.187,-0.239 0.043,0.1781 0.067,0.1875 0.238,0.0924 0.404,-0.2247 0.648,-0.3922 0.645,-0.4433 -0.001,-0.0293 -0.042,-0.2629 -0.091,-0.5191 -0.048,-0.2561 -0.066,-0.5072 -0.038,-0.558 0.028,-0.0507 0.069,-0.2259 0.091,-0.3893 l 0.041,-0.2972 1.092,-0.3315 1.092,-0.3315 -0.001,-0.2619 -0.002,-0.2619 0.442,-0.1566 c 0.345,-0.122 0.442,-0.1818 0.442,-0.2703 -0.001,-0.0866 -0.103,-0.0918 -0.429,-0.0218 -0.412,0.0886 -0.428,0.0846 -0.448,-0.1107 -0.025,-0.2386 -0.105,-0.2377 -0.195,0.0022 -0.062,0.1656 -0.127,0.1903 -1.92,0.7349 -1.077,0.3267 -1.872,0.5384 -1.892,0.5038 -0.02,-0.0329 0.025,-0.0893 0.1,-0.1255 0.105,-0.0504 0.155,-0.155 0.215,-0.4469 0.073,-0.3541 0.069,-0.3892 -0.048,-0.4981 -0.069,-0.0644 -0.126,-0.1485 -0.126,-0.187 -0.001,-0.1173 -0.323,-0.4521 -0.521,-0.5414 -0.184,-0.0827 -0.132,-0.1009 2.942,-1.0343 l 3.129,-0.9501 0.061,8.5243 0.061,8.5243 -3.225,0.9791 -3.225,0.9791 z"
         id="path129"
         sodipodi:nodetypes="ccssssscsssssssscsssssssccsssssssssscccccsssssssssscsssscssscccccssscsssssssssccccccs" /><path
         style="fill:#5d6697"
         d="m 197.888,29.1557 c 0.003,-0.135 -0.065,-0.1702 -0.393,-0.2033 -0.294,-0.0297 -0.421,-0.0862 -0.49,-0.2177 -0.089,-0.1696 -0.085,-0.1916 0.097,-0.485 0.249,-0.4036 1.277,-3.9004 1.273,-4.3341 -0.001,-0.1658 -0.073,-0.4441 -0.165,-0.64 -0.207,-0.4401 -1.068,-2.0737 -1.179,-2.2383 -0.047,-0.0683 -0.086,-0.2903 -0.087,-0.4933 -0.002,-0.3088 0.018,-0.3819 0.123,-0.448 0.085,-0.0538 0.227,-0.3664 0.445,-0.9847 0.286,-0.8083 0.311,-0.9184 0.235,-1.024 -0.075,-0.1022 -0.073,-0.141 0.013,-0.2867 0.129,-0.2174 0.158,-0.223 0.449,-0.0844 0.451,0.2153 0.836,-0.0616 1.059,-0.7619 0.138,-0.4301 0.141,-0.4342 0.187,-0.239 0.043,0.1781 0.067,0.1875 0.238,0.0924 0.404,-0.2247 0.648,-0.3922 0.645,-0.4433 -0.001,-0.0293 -0.042,-0.2629 -0.091,-0.5191 -0.048,-0.2561 -0.066,-0.5072 -0.038,-0.558 0.028,-0.0507 0.069,-0.2259 0.091,-0.3893 l 0.041,-0.2972 1.092,-0.3315 1.092,-0.3315 -0.001,-0.2619 -0.002,-0.2619 0.442,-0.1566 c 0.345,-0.122 0.442,-0.1818 0.442,-0.2703 -0.001,-0.0866 -0.103,-0.0918 -0.429,-0.0218 -0.412,0.0886 -0.428,0.0846 -0.448,-0.1107 -0.025,-0.2386 -0.105,-0.2377 -0.195,0.0022 -0.062,0.1656 -0.127,0.1903 -1.92,0.7349 -1.077,0.3267 -1.872,0.5384 -1.892,0.5038 -0.02,-0.0329 0.025,-0.0893 0.1,-0.1255 0.105,-0.0504 0.155,-0.155 0.215,-0.4469 0.073,-0.3541 0.069,-0.3892 -0.048,-0.4981 -0.069,-0.0644 -0.126,-0.1485 -0.126,-0.187 -0.001,-0.1173 -0.323,-0.4521 -0.521,-0.5414 -0.184,-0.0827 -0.132,-0.1009 2.942,-1.0343 l 3.129,-0.9501 0.061,8.5243 0.061,8.5243 -3.225,0.9791 -3.225,0.9791 z"
         id="path128" /><path
         style="fill:#333f80"
         d="m 197.912,29.1397 c -0.016,-0.1314 -0.098,-0.1717 -0.407,-0.1997 -0.28,-0.0254 -0.415,-0.0838 -0.489,-0.2105 -0.1,-0.1714 -0.098,-0.1827 0.092,-0.4868 0.127,-0.2019 0.312,-0.7061 0.527,-1.4335 0.779,-2.6357 0.836,-2.9256 0.664,-3.3646 -0.097,-0.2456 -1.031,-2.0439 -1.168,-2.2498 -0.059,-0.0867 -0.126,-0.3397 -0.15,-0.562 -0.04,-0.3705 -0.033,-0.4141 0.091,-0.5212 0.084,-0.0729 0.255,-0.4536 0.456,-1.0117 0.283,-0.7898 0.312,-0.9126 0.245,-1.045 -0.062,-0.124 -0.058,-0.1764 0.021,-0.3006 0.089,-0.1377 0.125,-0.139 0.431,-0.0151 0.303,0.1223 0.355,0.121 0.541,-0.0138 0.293,-0.2119 0.36,-0.3152 0.514,-0.7901 0.093,-0.288 0.138,-0.369 0.141,-0.2562 0.003,0.0908 0.032,0.1776 0.066,0.193 0.095,0.044 0.8,-0.3679 0.833,-0.487 0.017,-0.0588 -0.003,-0.2856 -0.043,-0.5038 -0.057,-0.3085 -0.056,-0.4951 0.002,-0.839 l 0.076,-0.4423 1.1,-0.3547 1.101,-0.3547 0.017,-0.2486 0.017,-0.2487 0.408,-0.1463 c 0.362,-0.1295 0.408,-0.1636 0.407,-0.2978 -0.001,-0.1343 -0.047,-0.1399 -0.413,-0.0488 -0.357,0.089 -0.412,0.0836 -0.413,-0.041 -0.002,-0.2234 -0.135,-0.2344 -0.233,-0.0192 -0.086,0.1892 -0.106,0.197 -1.941,0.7542 -1.196,0.363 -1.855,0.5361 -1.856,0.4872 0,-0.0417 0.05,-0.0909 0.11,-0.1093 0.082,-0.0249 0.131,-0.141 0.189,-0.4495 0.069,-0.37 0.067,-0.4225 -0.022,-0.4761 -0.056,-0.0332 -0.101,-0.0913 -0.101,-0.1291 -0.002,-0.1665 -0.334,-0.5462 -0.542,-0.6192 l -0.228,-0.0799 3.129,-0.9531 3.128,-0.9532 0.062,8.5243 0.061,8.5243 -3.201,0.9718 -3.201,0.9717 z"
         id="path127" /><path
         style="fill:#26377d"
         d="m 197.923,29.1268 c -0.001,-0.157 -0.053,-0.1826 -0.405,-0.1997 -0.316,-0.0155 -0.423,-0.0587 -0.491,-0.199 -0.081,-0.1671 -0.076,-0.1998 0.086,-0.4817 0.215,-0.3753 0.305,-0.6254 0.601,-1.6589 0.128,-0.4503 0.331,-1.153 0.449,-1.5616 0.254,-0.8782 0.275,-1.3414 0.079,-1.7603 -0.17,-0.3612 -0.693,-1.3485 -0.979,-1.8453 -0.282,-0.4907 -0.364,-1.1328 -0.17,-1.3173 0.067,-0.0632 0.267,-0.5136 0.446,-1.001 0.266,-0.7292 0.311,-0.9068 0.254,-1.0024 -0.08,-0.1319 -0.043,-0.3274 0.079,-0.4231 0.046,-0.0355 0.202,-8e-4 0.348,0.0771 0.312,0.1665 0.367,0.1559 0.7,-0.1335 0.216,-0.1886 0.267,-0.28 0.361,-0.6586 0.096,-0.3818 0.113,-0.4131 0.132,-0.2374 0.025,0.2325 0.091,0.2262 0.564,-0.0533 0.174,-0.1027 0.33,-0.2368 0.347,-0.2981 0.017,-0.0612 -0.001,-0.297 -0.038,-0.524 -0.053,-0.3168 -0.051,-0.5064 0.008,-0.816 l 0.078,-0.4032 1.107,-0.3568 1.107,-0.3569 -0.001,-0.2635 -0.002,-0.2635 0.427,-0.1297 c 0.415,-0.126 0.427,-0.1351 0.426,-0.3192 -0.001,-0.184 -0.014,-0.1857 -0.429,-0.0597 -0.382,0.1161 -0.427,0.1143 -0.428,-0.0173 -0.002,-0.2075 -0.113,-0.234 -0.237,-0.0562 -0.089,0.1288 -0.376,0.2363 -1.948,0.7319 -1.015,0.3195 -1.844,0.5553 -1.845,0.5241 0,-0.0313 0.052,-0.0727 0.116,-0.0921 0.162,-0.0491 0.309,-0.833 0.173,-0.9192 -0.048,-0.0307 -0.124,-0.152 -0.168,-0.2696 -0.081,-0.2195 -0.314,-0.455 -0.531,-0.5373 -0.091,-0.0345 0.682,-0.2916 2.975,-0.9894 l 3.099,-0.9429 0.061,8.5243 0.061,8.5243 -3.205,0.973 -3.205,0.973 z"
         id="path126" /></g><path
       d="m -36.902517,82.477662 c -1.087229,0 -12.341835,3.817076 -12.339307,4.185035 0.0023,0.350473 32.091921,10.226481 33.411682,10.282911 0.569569,0.0244 3.147369,-0.60494 5.727558,-1.39898 2.5801866,-0.79403 4.8567646,-1.6132 5.0591606,-1.81958 0.202393,-0.20637 -2.473712,-1.35641 -5.9470046,-2.55655 -3.473297,-1.200147 -10.523346,-3.647271 -15.666666,-5.437709 -5.143321,-1.790445 -9.753819,-3.255127 -10.245423,-3.255127 z"
       style="fill:#f9aa16;fill-opacity:1;stroke-width:1.4144"
       id="path10"
       sodipodi:nodetypes="scssssss" /><path
       d="m -16.03679,75.459026 -5.149683,1.715341 c -2.832578,0.943767 -5.150597,1.849781 -5.150597,2.013424 0,0.163651 6.492746,2.565121 14.427709,5.336214 7.9349616,2.771082 15.0220916,5.320902 15.7489596,5.666295 1.521989,0.723225 1.137153,0.782813 7.5983444,-1.179526 2.725748,-0.827839 4.956758,-1.655917 4.956758,-1.840609 0,-0.184686 -7.297767,-2.895583 -16.21620444,-6.023814 z"
       style="fill:#f9aa16;fill-opacity:1;stroke-width:1.4144"
       id="path9"
       sodipodi:nodetypes="ccssssscc" /><path
       d="m -16.224233,69.296231 -4.72542,1.483097 c -9.385533,2.944601 -37.217957,12.397332 -38.075831,12.685846 -1.368221,0.460148 -2.022988,1.919171 -2.023238,2.117211 -0.0515,41.095725 -0.0414,41.032755 -0.0775,55.558565 -9.4e-4,0.30936 11.924492,3.95995 35.450288,11.08511 6.291292,1.90543 9.744577,2.73277 10.793122,2.58583 1.723367,-0.24152 35.305946,-10.34047 40.643369,-12.22228 2.013723,-0.70997 3.597322,-1.56128 3.854032,-2.07102 0.272697,-0.5415 0.436151,-10.78507 0.436151,-27.36776 V 86.648067 L 29.029398,85.562719 C 28.399377,84.893186 25.825686,83.724258 22.311585,82.512407 19.178406,81.431914 10.364492,78.368513 2.7250436,75.704071 -4.9144084,73.039626 -12.30391,70.507789 -13.695055,70.078009 Z m 0.187443,6.162795 16.21528656,5.687325 C 9.096934,84.274582 16.394701,86.985479 16.394701,87.170165 c 0,0.184692 -2.23101,1.01277 -4.956758,1.840609 -6.4611914,1.962339 -6.0763554,1.902751 -7.5983444,1.179526 -0.726868,-0.345393 -7.813998,-2.895213 -15.7489596,-5.666295 -7.934963,-2.771093 -14.427709,-5.172568 -14.427709,-5.336214 0,-0.163634 2.318019,-1.069657 5.150597,-2.013424 z m -20.865727,7.018636 c 0.491604,0 5.102102,1.464682 10.245423,3.255127 5.14332,1.790438 12.193369,4.237562 15.666666,5.437709 3.4732926,1.20014 6.1493976,2.35018 5.9470046,2.55655 -0.202396,0.20638 -2.478974,1.02555 -5.0591606,1.81958 -2.580189,0.79404 -5.157989,1.42332 -5.727558,1.39898 -1.319761,-0.0564 -33.409341,-9.932438 -33.411682,-10.282911 -0.0023,-0.367959 11.252078,-4.185035 12.339307,-4.185035 z m 60.459407,9.072296 c 0.733455,-0.23104 0.769279,0.98423 0.661084,22.593872 l -0.114307,22.83708 -18.0613824,5.50447 c -9.933846,3.02721 -18.2106606,5.51002 -18.3923796,5.51816 -0.181719,0.009 -0.330084,-10.18619 -0.330084,-22.65421 v -22.66885 l 1.431891,-0.48827 c 0.787439,-0.26837 8.7656946,-2.717022 17.7303846,-5.442282 8.9646964,-2.72525 16.6484584,-5.06568 17.0747824,-5.19997 z"
       style="fill:#26377d;fill-opacity:1;stroke-width:0.468152"
       id="path8"
       sodipodi:nodetypes="ccsssssssscsssccccsssssccsssssscsssccssccss" /><path
       style="fill:#fdfdfd;fill-opacity:1;stroke-width:0.454538"
       d="m -33.415995,136.98347 c -0.383397,-0.28632 -0.574479,-0.62549 -1.732073,-3.07986 -0.577564,-1.22368 -1.077514,-2.26497 -1.111519,-2.31344 -0.03401,-0.0493 -0.211345,0.0572 -0.394235,0.23699 -2.32752,2.28522 -3.172284,2.62175 -4.239311,1.69586 -0.797542,-0.69155 -0.834102,-0.94088 -1.618517,-11.02886 -0.394764,-5.07615 -0.726888,-9.53737 -0.738254,-9.91707 -0.01805,-0.59817 0.02706,-0.72065 0.34032,-0.92412 0.708036,-0.46077 -0.101047,-1.17522 9.29493,8.22032 4.832471,4.83211 6.951113,7.02926 7.122022,7.3878 0.502681,1.05364 0.157164,2.07999 -0.799831,2.37687 -0.278476,0.0871 -1.190456,0.12507 -2.025791,0.0854 -0.8341,-0.0387 -1.613584,-0.0686 -1.733307,-0.0653 -0.176282,0.006 0.01208,0.49423 0.992588,2.57682 1.318459,2.8015 1.42955,3.26402 0.913653,3.80934 -0.30878,0.32595 -1.658072,0.89859 -2.747566,1.16728 -0.68416,0.16827 -1.069498,0.11089 -1.523109,-0.22816 z m 1.858847,-1.75752 c 0.619058,-0.22466 1.126582,-0.45283 1.127199,-0.50745 6.16e-4,-0.0548 -0.484181,-1.09682 -1.07672,-2.31431 -0.591925,-1.21751 -1.232214,-2.60325 -1.423471,-3.08074 -0.554482,-1.38577 -0.499245,-1.41925 2.132123,-1.29328 2.405133,0.11455 3.137835,0.0661 3.063746,-0.20525 -0.02617,-0.0952 -3.189901,-3.32302 -7.007935,-7.14996 -6.191099,-6.20554 -6.882309,-6.86275 -6.919575,-6.5826 -0.02273,0.17092 0.165712,2.68431 0.418814,5.58623 0.454932,5.21533 0.715698,8.63087 0.856477,11.21914 0.03974,0.73034 0.126778,1.38137 0.193463,1.44655 0.150908,0.14802 1.032848,-0.56294 2.406543,-1.939 1.155216,-1.15848 1.533416,-1.36551 1.879284,-1.03074 0.119821,0.11626 0.84996,1.55316 1.623451,3.19616 0.774548,1.64564 1.452629,3.0085 1.505928,3.0279 0.0532,0.0193 0.602318,-0.14802 1.220673,-0.37265 z m -19.951226,-15.00204 c -0.314331,-0.44224 -0.322611,-1.22721 -0.01524,-1.4395 0.489291,-0.33919 3.827196,-1.38049 4.138795,-1.29151 0.725654,0.20879 1.165962,1.55932 0.643019,1.97428 -0.12483,0.0987 -1.016463,0.44134 -1.97989,0.75936 -1.869506,0.61846 -2.345316,0.61756 -2.786683,-0.002 z m 0.619409,-9.259 c -2.0383,-1.20603 -2.399849,-1.53992 -2.392097,-2.20594 0.006,-0.51712 0.479248,-0.91532 0.935062,-0.78846 0.564788,0.15857 4.162579,2.26849 4.414627,2.59003 0.627865,0.8017 0.170027,1.92053 -0.679141,1.66151 -0.175137,-0.0528 -1.201202,-0.6193 -2.278451,-1.25714 z m 16.770485,3.34065 c -0.369038,-0.53563 -0.357056,-1.19724 0.02662,-1.46594 0.611215,-0.4299 3.766936,-1.40603 4.177909,-1.2915 0.851898,0.23609 1.256351,1.53554 0.615181,1.9769 -0.587519,0.40437 -3.792486,1.39809 -4.167956,1.29238 -0.219361,-0.0616 -0.486295,-0.27134 -0.651741,-0.51184 z m -11.311207,-7.41424 c -0.146943,-0.15417 -0.724245,-1.31351 -1.282514,-2.5742 -1.128345,-2.54863 -1.223491,-3.02965 -0.663809,-3.35561 0.441541,-0.25724 0.886518,-0.12688 1.23591,0.36207 0.453877,0.63519 2.220307,4.72465 2.215637,5.1299 -0.0052,0.45986 -0.537919,0.91357 -0.940168,0.80168 -0.163774,-0.0449 -0.418022,-0.20879 -0.565056,-0.36384 z m 6.201938,1.15848 c -0.187382,-0.25814 -0.310102,-0.59114 -0.304726,-0.8246 0.01691,-0.74089 1.177589,-4.56253 1.424701,-4.69027 0.606901,-0.31451 1.611998,0.43872 1.603278,1.20163 -0.0021,0.18149 -0.254954,1.26244 -0.561707,2.40065 -0.433436,1.60776 -0.629365,2.11873 -0.88,2.29669 -0.419694,0.29777 -0.890309,0.15682 -1.281546,-0.38323 z"
       id="path198" /></g></svg>
